<svg
xmlns="http://www.w3.org/2000/svg" xmlns:v="https://svgstorm.com"
viewBox = "0 0 686 650"
width="686"
height="650">
<g fill="None" fill-opacity="0.0" stroke="#F3F2EB" stroke-opacity="1.00" stroke-width="0.3"><path d="
M 0.00 650.00 
L 686.00 650.00
L 686.00 0.00
L 0.00 0.00
L 0.00 650.00
M 331.00 54.00 
C 333.13 57.95 331.37 63.20 331.00 67.00
C 331.00 85.23 330.08 100.47 331.00 119.00 C 331.92 137.53 306.54 129.95 292.78 132.78 C 279.02 135.61 262.69 137.74 249.98 142.98 C 237.27 148.21 226.64 153.43 215.25 160.25 C 203.87 167.08 195.09 174.38 185.00 183.00
C 181.08 186.92 176.87 191.13 173.00 195.00
C 166.92 202.11 161.94 208.12 157.08 216.08 C 152.21 224.03 147.07 231.25 143.08 240.08 C 139.09 248.90 135.30 257.85 132.68 267.68 C 130.05 277.51 127.18 288.32 126.01 299.01 C 124.84 309.69 124.58 324.99 125.00 336.00 C 125.42 347.01 128.68 357.97 130.93 368.07 C 133.18 378.18 136.62 387.29 140.77 396.23 C 144.93 405.17 148.66 413.13 153.92 421.08 C 159.17 429.03 163.93 435.71 170.25 442.75 C 176.56 449.79 182.10 455.66 189.25 461.75 C 196.40 467.84 203.14 472.85 211.08 477.92 C 219.02 482.99 227.25 487.17 236.07 490.93 C 244.90 494.68 254.83 497.89 264.07 500.93 C 273.32 503.96 288.10 503.41 297.00 506.00 C 305.90 508.59 326.85 502.31 331.00 510.00
C 332.82 513.38 331.30 516.86 331.00 520.00
C 331.00 531.74 331.24 546.57 331.00 558.00 C 330.76 569.43 335.30 588.90 322.00 588.00 C 308.70 587.10 297.78 586.86 286.00 585.00 C 274.22 583.14 264.97 580.25 254.33 577.67 C 243.68 575.10 234.96 571.32 225.32 567.68 C 215.69 564.03 207.78 559.34 198.92 555.08 C 190.07 550.81 182.18 546.07 174.25 540.75 C 166.33 535.42 158.70 530.54 151.30 524.70 C 143.90 518.85 137.63 512.80 130.75 506.25 C 123.88 499.70 118.00 493.31 111.75 486.25 C 105.51 479.19 100.93 471.43 95.23 463.77 C 89.53 456.11 85.22 447.99 80.69 439.31 C 76.17 430.62 71.80 422.33 68.22 412.78 C 64.65 403.22 61.44 393.36 59.01 382.99 C 56.57 372.62 54.02 361.14 53.00 350.00 C 51.98 338.85 50.65 325.81 51.33 314.33 C 52.01 302.85 53.23 289.94 54.99 278.99 C 56.76 268.04 58.86 257.08 61.98 246.98 C 65.09 236.87 68.93 228.12 72.77 218.77 C 76.61 209.42 80.76 201.11 85.77 192.77 C 90.78 184.43 94.94 176.27 100.77 168.77 C 106.60 161.27 111.13 153.45 117.75 146.75 C 124.37 140.06 129.44 132.74 136.75 126.75 C 144.06 120.76 150.56 114.66 158.23 109.23 C 165.90 103.80 173.03 97.99 181.25 93.25 C 189.46 88.50 197.87 83.62 206.69 79.69 C 215.52 75.77 225.03 71.50 234.22 68.22 C 243.42 64.95 254.84 61.21 264.22 59.22 C 273.61 57.23 288.80 53.62 297.67 53.67 C 306.54 53.72 326.88 46.36 331.00 54.00
M 445.00 489.00 
C 439.31 488.43 433.06 488.91 428.00 488.00
C 421.85 487.58 414.93 484.08 412.25 477.75 C 409.56 471.43 404.46 465.71 406.00 459.00
C 400.94 465.73 404.52 454.26 404.00 451.00
C 395.60 459.50 409.41 431.59 400.00 439.00
C 399.74 434.18 403.93 430.72 404.00 426.00
C 401.24 428.46 397.49 432.27 396.00 427.00
C 395.59 431.21 391.46 433.97 390.00 429.00
C 388.86 434.46 387.04 438.76 384.00 433.00
C 381.90 439.60 381.69 446.76 382.00 454.00
C 377.73 447.36 379.08 457.96 380.00 461.00
C 374.28 453.66 376.07 464.15 376.00 471.00 C 375.93 477.85 386.66 477.17 392.00 477.00 C 397.34 476.83 402.24 483.31 403.00 488.00
C 392.64 486.33 379.03 490.22 369.00 488.00 C 358.97 485.78 365.24 468.55 364.00 459.00 C 362.76 449.45 364.45 435.34 364.00 425.00 C 363.55 414.66 363.97 401.47 364.00 391.00 C 364.03 380.53 363.46 367.03 364.00 357.00 C 364.54 346.97 360.02 330.98 370.00 329.00 C 379.99 327.03 391.92 327.99 401.00 330.00 C 410.09 332.00 420.64 337.25 429.07 332.07 C 437.50 326.89 442.49 320.79 453.00 322.00 C 463.51 323.21 472.31 324.65 482.00 320.00
C 476.94 309.68 486.58 303.81 493.75 310.25 C 500.92 316.69 511.53 311.48 519.67 314.33 C 527.82 317.17 530.85 323.53 539.67 324.33 C 548.49 325.12 559.09 326.71 554.08 336.08 C 549.07 345.46 549.24 349.00 539.92 351.92 C 530.60 354.85 529.50 360.21 526.00 368.00
C 524.76 365.44 524.24 360.39 522.08 366.08 C 519.91 371.76 519.71 367.69 517.00 366.00
C 516.59 372.04 514.04 375.87 511.00 370.00
C 511.60 374.00 508.40 376.97 509.00 381.00
C 506.53 379.92 507.93 376.24 506.00 375.00
C 504.83 378.98 503.30 383.41 502.00 387.00
C 499.69 384.12 500.94 379.60 499.00 377.00
C 492.96 384.18 493.54 391.33 494.00 401.00 C 494.46 410.67 491.86 416.52 493.00 426.00
C 489.66 423.13 490.65 430.83 489.07 435.07 C 487.49 439.32 488.38 447.02 488.00 452.00 C 487.63 456.98 490.55 461.49 492.00 466.00
C 536.03 434.44 562.48 381.70 563.00 328.00
C 563.00 322.33 563.00 316.67 563.00 311.00
C 563.00 299.34 560.80 286.64 558.02 275.98 C 555.24 265.31 551.52 255.44 547.23 245.77 C 542.93 236.10 538.87 227.35 533.08 218.92 C 527.29 210.49 522.57 202.74 515.75 195.25 C 508.92 187.77 502.95 182.22 495.25 175.75 C 487.55 169.28 480.34 163.86 471.25 158.75 C 462.17 153.63 454.36 148.88 443.78 145.22 C 433.19 141.57 424.85 137.07 412.33 135.67 C 399.80 134.27 392.50 129.04 377.00 131.00 C 361.50 132.96 363.77 117.07 364.00 103.00 C 364.23 88.93 365.14 77.33 364.00 62.00 C 362.86 46.67 380.24 51.95 391.67 53.33 C 403.10 54.71 414.53 56.96 425.22 59.78 C 435.91 62.60 446.80 65.28 456.69 69.31 C 466.59 73.34 476.04 76.98 485.23 81.77 C 494.42 86.56 503.32 90.76 511.70 96.30 C 520.07 101.85 527.34 106.83 535.08 112.92 C 542.83 119.00 549.66 125.27 556.75 132.25 C 563.84 139.23 570.31 145.93 576.25 153.75 C 582.20 161.56 588.22 168.93 593.75 177.25 C 599.29 185.56 603.44 193.57 608.31 202.70 C 613.17 211.82 617.17 220.99 620.93 231.07 C 624.68 241.16 628.14 251.21 630.78 262.22 C 633.42 273.24 634.90 286.15 636.00 298.00 C 637.10 309.85 637.19 324.29 636.22 336.22 C 635.26 348.15 634.71 361.96 632.02 373.02 C 629.34 384.09 626.84 394.94 623.07 405.07 C 619.30 415.20 615.61 424.80 611.07 434.07 C 606.54 443.34 601.61 450.87 596.23 459.23 C 590.85 467.59 585.42 475.57 579.23 483.23 C 573.04 490.89 566.38 497.31 559.25 504.25 C 552.12 511.19 545.26 517.31 537.25 523.25 C 529.24 529.19 521.67 533.43 512.75 538.75 C 503.83 544.08 494.09 547.12 483.98 550.98 C 473.86 554.84 462.34 557.20 451.00 559.00 C 439.66 560.80 425.35 563.15 413.00 562.00
C 411.12 569.54 417.63 583.60 408.00 585.00 C 398.36 586.39 391.79 586.18 381.98 587.98 C 372.16 589.77 362.33 588.26 364.00 577.00 C 365.67 565.74 363.84 559.63 364.00 549.00 C 364.16 538.37 365.11 530.78 364.00 520.00 C 362.89 509.22 364.41 500.83 376.00 503.00 C 387.59 505.17 393.18 501.54 403.00 502.00 C 412.82 502.46 418.54 498.43 427.22 497.22 C 435.91 496.01 441.78 492.90 450.00 491.00
C 450.52 488.08 446.67 489.27 445.00 489.00
M 440.00 212.00 
C 451.07 214.02 447.98 233.15 436.33 230.67 C 424.67 228.18 428.20 209.84 440.00 212.00
M 374.00 221.00 
C 406.60 225.66 400.00 278.21 366.33 273.67 C 332.66 269.13 340.36 216.19 374.00 221.00
M 283.00 247.00 
C 295.88 249.53 291.55 271.79 278.32 268.66 C 265.09 265.54 268.46 244.15 283.00 247.00
M 209.00 387.00 
C 208.57 384.01 208.72 380.87 209.00 378.00
C 209.00 369.88 210.58 360.97 213.93 353.93 C 217.27 346.88 221.21 342.16 226.25 336.25 C 231.29 330.33 237.09 327.64 243.70 323.70 C 250.30 319.75 258.43 317.66 266.22 316.22 C 274.01 314.79 284.62 315.31 292.22 316.78 C 299.82 318.25 308.71 320.04 315.08 323.92 C 321.44 327.81 330.41 329.95 331.00 338.00 C 331.59 346.06 333.36 361.33 323.00 360.00 C 312.64 358.66 302.30 361.88 293.33 359.67 C 284.36 357.46 277.10 356.13 269.31 359.31 C 261.52 362.48 257.42 367.62 255.08 375.08 C 252.73 382.53 254.65 391.84 260.30 397.70 C 265.95 403.55 272.06 407.24 281.67 405.67 C 291.28 404.10 281.01 386.02 286.00 380.00 C 290.99 373.98 303.72 380.50 313.00 378.00 C 322.28 375.50 333.39 378.52 331.00 390.00 C 328.61 401.48 331.03 409.50 331.00 420.00 C 330.97 430.50 327.47 434.22 318.77 437.77 C 310.07 441.32 305.31 443.74 296.78 445.78 C 288.24 447.81 277.56 447.07 269.00 447.00 C 260.44 446.93 253.11 443.17 245.77 440.23 C 238.44 437.29 233.87 433.28 228.25 427.75 C 222.63 422.22 218.76 417.77 215.23 410.77 C 211.70 403.77 209.31 395.13 209.00 387.00 Z"/>
</g>
<g fill="None" fill-opacity="0.0" stroke="#202020" stroke-opacity="1.00" stroke-width="0.3"><path d="
M 331.00 520.00 
C 331.00 517.23 331.92 512.59 331.00 510.00
C 326.85 502.31 305.90 508.59 297.00 506.00 C 288.10 503.41 273.32 503.96 264.07 500.93 C 254.83 497.89 244.90 494.68 236.07 490.93 C 227.25 487.17 219.02 482.99 211.08 477.92 C 203.14 472.85 196.40 467.84 189.25 461.75 C 182.10 455.66 176.56 449.79 170.25 442.75 C 163.93 435.71 159.17 429.03 153.92 421.08 C 148.66 413.13 144.93 405.17 140.77 396.23 C 136.62 387.29 133.18 378.18 130.93 368.07 C 128.68 357.97 125.42 347.01 125.00 336.00 C 124.58 324.99 124.84 309.69 126.01 299.01 C 127.18 288.32 130.05 277.51 132.68 267.68 C 135.30 257.85 139.09 248.90 143.08 240.08 C 147.07 231.25 152.21 224.03 157.08 216.08 C 161.94 208.12 166.92 202.11 173.00 195.00
C 176.66 190.71 180.76 186.62 185.00 183.00
C 195.09 174.38 203.87 167.08 215.25 160.25 C 226.64 153.43 237.27 148.21 249.98 142.98 C 262.69 137.74 279.02 135.61 292.78 132.78 C 306.54 129.95 331.92 137.53 331.00 119.00 C 330.08 100.47 331.00 85.23 331.00 67.00
C 331.00 63.40 332.20 57.36 331.00 54.00
C 326.88 46.36 306.54 53.72 297.67 53.67 C 288.80 53.62 273.61 57.23 264.22 59.22 C 254.84 61.21 243.42 64.95 234.22 68.22 C 225.03 71.50 215.52 75.77 206.69 79.69 C 197.87 83.62 189.46 88.50 181.25 93.25 C 173.03 97.99 165.90 103.80 158.23 109.23 C 150.56 114.66 144.06 120.76 136.75 126.75 C 129.44 132.74 124.37 140.06 117.75 146.75 C 111.13 153.45 106.60 161.27 100.77 168.77 C 94.94 176.27 90.78 184.43 85.77 192.77 C 80.76 201.11 76.61 209.42 72.77 218.77 C 68.93 228.12 65.09 236.87 61.98 246.98 C 58.86 257.08 56.76 268.04 54.99 278.99 C 53.23 289.94 52.01 302.85 51.33 314.33 C 50.65 325.81 51.98 338.85 53.00 350.00 C 54.02 361.14 56.57 372.62 59.01 382.99 C 61.44 393.36 64.65 403.22 68.22 412.78 C 71.80 422.33 76.17 430.62 80.69 439.31 C 85.22 447.99 89.53 456.11 95.23 463.77 C 100.93 471.43 105.51 479.19 111.75 486.25 C 118.00 493.31 123.88 499.70 130.75 506.25 C 137.63 512.80 143.90 518.85 151.30 524.70 C 158.70 530.54 166.33 535.42 174.25 540.75 C 182.18 546.07 190.07 550.81 198.92 555.08 C 207.78 559.34 215.69 564.03 225.32 567.68 C 234.96 571.32 243.68 575.10 254.33 577.67 C 264.97 580.25 274.22 583.14 286.00 585.00 C 297.78 586.86 308.70 587.10 322.00 588.00 C 335.30 588.90 330.76 569.43 331.00 558.00 C 331.24 546.57 331.00 531.74 331.00 520.00 Z"/>
</g>
<g fill="None" fill-opacity="0.0" stroke="#202020" stroke-opacity="1.00" stroke-width="0.3"><path d="
M 563.00 311.00 
C 563.52 316.35 563.51 322.72 563.00 328.00
C 562.48 381.70 536.03 434.44 492.00 466.00
C 490.55 461.49 487.63 456.98 488.00 452.00 C 488.38 447.02 487.49 439.32 489.07 435.07 C 490.65 430.83 489.66 423.13 493.00 426.00
C 491.86 416.52 494.46 410.67 494.00 401.00 C 493.54 391.33 492.96 384.18 499.00 377.00
C 500.94 379.60 499.69 384.12 502.00 387.00
C 503.30 383.41 504.83 378.98 506.00 375.00
C 507.93 376.24 506.53 379.92 509.00 381.00
C 508.40 376.97 511.60 374.00 511.00 370.00
C 514.04 375.87 516.59 372.04 517.00 366.00
C 519.71 367.69 519.91 371.76 522.08 366.08 C 524.24 360.39 524.76 365.44 526.00 368.00
C 529.50 360.21 530.60 354.85 539.92 351.92 C 549.24 349.00 549.07 345.46 554.08 336.08 C 559.09 326.71 548.49 325.12 539.67 324.33 C 530.85 323.53 527.82 317.17 519.67 314.33 C 511.53 311.48 500.92 316.69 493.75 310.25 C 486.58 303.81 476.94 309.68 482.00 320.00
C 472.31 324.65 463.51 323.21 453.00 322.00 C 442.49 320.79 437.50 326.89 429.07 332.07 C 420.64 337.25 410.09 332.00 401.00 330.00 C 391.92 327.99 379.99 327.03 370.00 329.00 C 360.02 330.98 364.54 346.97 364.00 357.00 C 363.46 367.03 364.03 380.53 364.00 391.00 C 363.97 401.47 363.55 414.66 364.00 425.00 C 364.45 435.34 362.76 449.45 364.00 459.00 C 365.24 468.55 358.97 485.78 369.00 488.00 C 379.03 490.22 392.64 486.33 403.00 488.00
C 402.24 483.31 397.34 476.83 392.00 477.00 C 386.66 477.17 375.93 477.85 376.00 471.00 C 376.07 464.15 374.28 453.66 380.00 461.00
C 379.08 457.96 377.73 447.36 382.00 454.00
C 381.69 446.76 381.90 439.60 384.00 433.00
C 387.04 438.76 388.86 434.46 390.00 429.00
C 391.46 433.97 395.59 431.21 396.00 427.00
C 397.49 432.27 401.24 428.46 404.00 426.00
C 403.93 430.72 399.74 434.18 400.00 439.00
C 409.41 431.59 395.60 459.50 404.00 451.00
C 404.52 454.26 400.94 465.73 406.00 459.00
C 404.46 465.71 409.56 471.43 412.25 477.75 C 414.93 484.08 421.85 487.58 428.00 488.00
C 433.78 488.39 439.90 487.85 445.00 489.00
C 446.67 489.27 450.52 488.08 450.00 491.00
C 441.78 492.90 435.91 496.01 427.22 497.22 C 418.54 498.43 412.82 502.46 403.00 502.00 C 393.18 501.54 387.59 505.17 376.00 503.00 C 364.41 500.83 362.89 509.22 364.00 520.00 C 365.11 530.78 364.16 538.37 364.00 549.00 C 363.84 559.63 365.67 565.74 364.00 577.00 C 362.33 588.26 372.16 589.77 381.98 587.98 C 391.79 586.18 398.36 586.39 408.00 585.00 C 417.63 583.60 411.12 569.54 413.00 562.00
C 425.35 563.15 439.66 560.80 451.00 559.00 C 462.34 557.20 473.86 554.84 483.98 550.98 C 494.09 547.12 503.83 544.08 512.75 538.75 C 521.67 533.43 529.24 529.19 537.25 523.25 C 545.26 517.31 552.12 511.19 559.25 504.25 C 566.38 497.31 573.04 490.89 579.23 483.23 C 585.42 475.57 590.85 467.59 596.23 459.23 C 601.61 450.87 606.54 443.34 611.07 434.07 C 615.61 424.80 619.30 415.20 623.07 405.07 C 626.84 394.94 629.34 384.09 632.02 373.02 C 634.71 361.96 635.26 348.15 636.22 336.22 C 637.19 324.29 637.10 309.85 636.00 298.00 C 634.90 286.15 633.42 273.24 630.78 262.22 C 628.14 251.21 624.68 241.16 620.93 231.07 C 617.17 220.99 613.17 211.82 608.31 202.70 C 603.44 193.57 599.29 185.56 593.75 177.25 C 588.22 168.93 582.20 161.56 576.25 153.75 C 570.31 145.93 563.84 139.23 556.75 132.25 C 549.66 125.27 542.83 119.00 535.08 112.92 C 527.34 106.83 520.07 101.85 511.70 96.30 C 503.32 90.76 494.42 86.56 485.23 81.77 C 476.04 76.98 466.59 73.34 456.69 69.31 C 446.80 65.28 435.91 62.60 425.22 59.78 C 414.53 56.96 403.10 54.71 391.67 53.33 C 380.24 51.95 362.86 46.67 364.00 62.00 C 365.14 77.33 364.23 88.93 364.00 103.00 C 363.77 117.07 361.50 132.96 377.00 131.00 C 392.50 129.04 399.80 134.27 412.33 135.67 C 424.85 137.07 433.19 141.57 443.78 145.22 C 454.36 148.88 462.17 153.63 471.25 158.75 C 480.34 163.86 487.55 169.28 495.25 175.75 C 502.95 182.22 508.92 187.77 515.75 195.25 C 522.57 202.74 527.29 210.49 533.08 218.92 C 538.87 227.35 542.93 236.10 547.23 245.77 C 551.52 255.44 555.24 265.31 558.02 275.98 C 560.80 286.64 563.00 299.34 563.00 311.00
M 454.00 420.00 
C 452.19 425.70 453.96 432.33 452.00 438.00
C 457.39 433.56 453.14 444.57 453.00 448.00
C 457.63 444.80 458.06 445.89 457.22 450.22 C 456.38 454.55 461.58 456.32 459.00 461.00
C 462.06 461.35 461.19 456.53 464.00 456.00
C 464.00 459.33 464.00 462.67 464.00 466.00
C 469.49 464.71 470.04 475.46 474.00 479.00
C 466.35 484.20 459.66 488.33 453.25 479.75 C 446.84 471.17 430.13 484.24 431.02 466.98 C 431.92 449.71 442.26 431.67 454.00 420.00 Z"/>
</g>
<g fill="None" fill-opacity="0.0" stroke="#979596" stroke-opacity="1.00" stroke-width="0.3"><path d="
M 331.00 67.00 
C 331.37 63.20 333.13 57.95 331.00 54.00
C 332.20 57.36 331.00 63.40 331.00 67.00 Z"/>
</g>
<g fill="None" fill-opacity="0.0" stroke="#787877" stroke-opacity="1.00" stroke-width="0.3"><path d="
M 173.00 195.00 
C 176.87 191.13 181.08 186.92 185.00 183.00
C 180.76 186.62 176.66 190.71 173.00 195.00 Z"/>
</g>
<g fill="None" fill-opacity="0.0" stroke="#262625" stroke-opacity="1.00" stroke-width="0.3"><path d="
M 440.00 212.00 
C 428.20 209.84 424.67 228.18 436.33 230.67 C 447.98 233.15 451.07 214.02 440.00 212.00 Z"/>
</g>
<g fill="None" fill-opacity="0.0" stroke="#212020" stroke-opacity="1.00" stroke-width="0.3"><path d="
M 374.00 221.00 
C 340.36 216.19 332.66 269.13 366.33 273.67 C 400.00 278.21 406.60 225.66 374.00 221.00 Z"/>
</g>
<g fill="None" fill-opacity="0.0" stroke="#252523" stroke-opacity="1.00" stroke-width="0.3"><path d="
M 283.00 247.00 
C 268.46 244.15 265.09 265.54 278.32 268.66 C 291.55 271.79 295.88 249.53 283.00 247.00 Z"/>
</g>
<g fill="None" fill-opacity="0.0" stroke="#8E8B89" stroke-opacity="1.00" stroke-width="0.3"><path d="
M 563.00 328.00 
C 563.51 322.72 563.52 316.35 563.00 311.00
C 563.00 316.67 563.00 322.33 563.00 328.00 Z"/>
</g>
<g fill="None" fill-opacity="0.0" stroke="#202020" stroke-opacity="1.00" stroke-width="0.3"><path d="
M 209.00 378.00 
C 209.00 380.99 208.89 384.01 209.00 387.00
C 209.31 395.13 211.70 403.77 215.23 410.77 C 218.76 417.77 222.63 422.22 228.25 427.75 C 233.87 433.28 238.44 437.29 245.77 440.23 C 253.11 443.17 260.44 446.93 269.00 447.00 C 277.56 447.07 288.24 447.81 296.78 445.78 C 305.31 443.74 310.07 441.32 318.77 437.77 C 327.47 434.22 330.97 430.50 331.00 420.00 C 331.03 409.50 328.61 401.48 331.00 390.00 C 333.39 378.52 322.28 375.50 313.00 378.00 C 303.72 380.50 290.99 373.98 286.00 380.00 C 281.01 386.02 291.28 404.10 281.67 405.67 C 272.06 407.24 265.95 403.55 260.30 397.70 C 254.65 391.84 252.73 382.53 255.08 375.08 C 257.42 367.62 261.52 362.48 269.31 359.31 C 277.10 356.13 284.36 357.46 293.33 359.67 C 302.30 361.88 312.64 358.66 323.00 360.00 C 333.36 361.33 331.59 346.06 331.00 338.00 C 330.41 329.95 321.44 327.81 315.08 323.92 C 308.71 320.04 299.82 318.25 292.22 316.78 C 284.62 315.31 274.01 314.79 266.22 316.22 C 258.43 317.66 250.30 319.75 243.70 323.70 C 237.09 327.64 231.29 330.33 226.25 336.25 C 221.21 342.16 217.27 346.88 213.93 353.93 C 210.58 360.97 209.00 369.88 209.00 378.00 Z"/>
</g>
<g fill="None" fill-opacity="0.0" stroke="#8D8C88" stroke-opacity="1.00" stroke-width="0.3"><path d="
M 209.00 387.00 
C 208.89 384.01 209.00 380.99 209.00 378.00
C 208.72 380.87 208.57 384.01 209.00 387.00 Z"/>
</g>
<g fill="None" fill-opacity="0.0" stroke="#EEECE8" stroke-opacity="1.00" stroke-width="0.3"><path d="
M 454.00 420.00 
C 442.26 431.67 431.92 449.71 431.02 466.98 C 430.13 484.24 446.84 471.17 453.25 479.75 C 459.66 488.33 466.35 484.20 474.00 479.00
C 470.04 475.46 469.49 464.71 464.00 466.00
C 464.00 462.67 464.00 459.33 464.00 456.00
C 461.19 456.53 462.06 461.35 459.00 461.00
C 461.58 456.32 456.38 454.55 457.22 450.22 C 458.06 445.89 457.63 444.80 453.00 448.00
C 453.14 444.57 457.39 433.56 452.00 438.00
C 453.96 432.33 452.19 425.70 454.00 420.00 Z"/>
</g>
<g fill="None" fill-opacity="0.0" stroke="#767774" stroke-opacity="1.00" stroke-width="0.3"><path d="
M 445.00 489.00 
C 439.90 487.85 433.78 488.39 428.00 488.00
C 433.06 488.91 439.31 488.43 445.00 489.00 Z"/>
</g>
<g fill="None" fill-opacity="0.0" stroke="#868585" stroke-opacity="1.00" stroke-width="0.3"><path d="
M 331.00 520.00 
C 331.30 516.86 332.82 513.38 331.00 510.00
C 331.92 512.59 331.00 517.23 331.00 520.00 Z"/>
</g>
<g fill="#F3F2EB" fill-opacity="1.00" stroke="None">
<path d="
M 0.00 650.00 
L 686.00 650.00
L 686.00 0.00
L 0.00 0.00
L 0.00 650.00
M 331.00 54.00 
C 333.13 57.95 331.37 63.20 331.00 67.00
C 331.00 85.23 330.08 100.47 331.00 119.00 C 331.92 137.53 306.54 129.95 292.78 132.78 C 279.02 135.61 262.69 137.74 249.98 142.98 C 237.27 148.21 226.64 153.43 215.25 160.25 C 203.87 167.08 195.09 174.38 185.00 183.00
C 181.08 186.92 176.87 191.13 173.00 195.00
C 166.92 202.11 161.94 208.12 157.08 216.08 C 152.21 224.03 147.07 231.25 143.08 240.08 C 139.09 248.90 135.30 257.85 132.68 267.68 C 130.05 277.51 127.18 288.32 126.01 299.01 C 124.84 309.69 124.58 324.99 125.00 336.00 C 125.42 347.01 128.68 357.97 130.93 368.07 C 133.18 378.18 136.62 387.29 140.77 396.23 C 144.93 405.17 148.66 413.13 153.92 421.08 C 159.17 429.03 163.93 435.71 170.25 442.75 C 176.56 449.79 182.10 455.66 189.25 461.75 C 196.40 467.84 203.14 472.85 211.08 477.92 C 219.02 482.99 227.25 487.17 236.07 490.93 C 244.90 494.68 254.83 497.89 264.07 500.93 C 273.32 503.96 288.10 503.41 297.00 506.00 C 305.90 508.59 326.85 502.31 331.00 510.00
C 332.82 513.38 331.30 516.86 331.00 520.00
C 331.00 531.74 331.24 546.57 331.00 558.00 C 330.76 569.43 335.30 588.90 322.00 588.00 C 308.70 587.10 297.78 586.86 286.00 585.00 C 274.22 583.14 264.97 580.25 254.33 577.67 C 243.68 575.10 234.96 571.32 225.32 567.68 C 215.69 564.03 207.78 559.34 198.92 555.08 C 190.07 550.81 182.18 546.07 174.25 540.75 C 166.33 535.42 158.70 530.54 151.30 524.70 C 143.90 518.85 137.63 512.80 130.75 506.25 C 123.88 499.70 118.00 493.31 111.75 486.25 C 105.51 479.19 100.93 471.43 95.23 463.77 C 89.53 456.11 85.22 447.99 80.69 439.31 C 76.17 430.62 71.80 422.33 68.22 412.78 C 64.65 403.22 61.44 393.36 59.01 382.99 C 56.57 372.62 54.02 361.14 53.00 350.00 C 51.98 338.85 50.65 325.81 51.33 314.33 C 52.01 302.85 53.23 289.94 54.99 278.99 C 56.76 268.04 58.86 257.08 61.98 246.98 C 65.09 236.87 68.93 228.12 72.77 218.77 C 76.61 209.42 80.76 201.11 85.77 192.77 C 90.78 184.43 94.94 176.27 100.77 168.77 C 106.60 161.27 111.13 153.45 117.75 146.75 C 124.37 140.06 129.44 132.74 136.75 126.75 C 144.06 120.76 150.56 114.66 158.23 109.23 C 165.90 103.80 173.03 97.99 181.25 93.25 C 189.46 88.50 197.87 83.62 206.69 79.69 C 215.52 75.77 225.03 71.50 234.22 68.22 C 243.42 64.95 254.84 61.21 264.22 59.22 C 273.61 57.23 288.80 53.62 297.67 53.67 C 306.54 53.72 326.88 46.36 331.00 54.00
M 445.00 489.00 
C 439.31 488.43 433.06 488.91 428.00 488.00
C 421.85 487.58 414.93 484.08 412.25 477.75 C 409.56 471.43 404.46 465.71 406.00 459.00
C 400.94 465.73 404.52 454.26 404.00 451.00
C 395.60 459.50 409.41 431.59 400.00 439.00
C 399.74 434.18 403.93 430.72 404.00 426.00
C 401.24 428.46 397.49 432.27 396.00 427.00
C 395.59 431.21 391.46 433.97 390.00 429.00
C 388.86 434.46 387.04 438.76 384.00 433.00
C 381.90 439.60 381.69 446.76 382.00 454.00
C 377.73 447.36 379.08 457.96 380.00 461.00
C 374.28 453.66 376.07 464.15 376.00 471.00 C 375.93 477.85 386.66 477.17 392.00 477.00 C 397.34 476.83 402.24 483.31 403.00 488.00
C 392.64 486.33 379.03 490.22 369.00 488.00 C 358.97 485.78 365.24 468.55 364.00 459.00 C 362.76 449.45 364.45 435.34 364.00 425.00 C 363.55 414.66 363.97 401.47 364.00 391.00 C 364.03 380.53 363.46 367.03 364.00 357.00 C 364.54 346.97 360.02 330.98 370.00 329.00 C 379.99 327.03 391.92 327.99 401.00 330.00 C 410.09 332.00 420.64 337.25 429.07 332.07 C 437.50 326.89 442.49 320.79 453.00 322.00 C 463.51 323.21 472.31 324.65 482.00 320.00
C 476.94 309.68 486.58 303.81 493.75 310.25 C 500.92 316.69 511.53 311.48 519.67 314.33 C 527.82 317.17 530.85 323.53 539.67 324.33 C 548.49 325.12 559.09 326.71 554.08 336.08 C 549.07 345.46 549.24 349.00 539.92 351.92 C 530.60 354.85 529.50 360.21 526.00 368.00
C 524.76 365.44 524.24 360.39 522.08 366.08 C 519.91 371.76 519.71 367.69 517.00 366.00
C 516.59 372.04 514.04 375.87 511.00 370.00
C 511.60 374.00 508.40 376.97 509.00 381.00
C 506.53 379.92 507.93 376.24 506.00 375.00
C 504.83 378.98 503.30 383.41 502.00 387.00
C 499.69 384.12 500.94 379.60 499.00 377.00
C 492.96 384.18 493.54 391.33 494.00 401.00 C 494.46 410.67 491.86 416.52 493.00 426.00
C 489.66 423.13 490.65 430.83 489.07 435.07 C 487.49 439.32 488.38 447.02 488.00 452.00 C 487.63 456.98 490.55 461.49 492.00 466.00
C 536.03 434.44 562.48 381.70 563.00 328.00
C 563.00 322.33 563.00 316.67 563.00 311.00
C 563.00 299.34 560.80 286.64 558.02 275.98 C 555.24 265.31 551.52 255.44 547.23 245.77 C 542.93 236.10 538.87 227.35 533.08 218.92 C 527.29 210.49 522.57 202.74 515.75 195.25 C 508.92 187.77 502.95 182.22 495.25 175.75 C 487.55 169.28 480.34 163.86 471.25 158.75 C 462.17 153.63 454.36 148.88 443.78 145.22 C 433.19 141.57 424.85 137.07 412.33 135.67 C 399.80 134.27 392.50 129.04 377.00 131.00 C 361.50 132.96 363.77 117.07 364.00 103.00 C 364.23 88.93 365.14 77.33 364.00 62.00 C 362.86 46.67 380.24 51.95 391.67 53.33 C 403.10 54.71 414.53 56.96 425.22 59.78 C 435.91 62.60 446.80 65.28 456.69 69.31 C 466.59 73.34 476.04 76.98 485.23 81.77 C 494.42 86.56 503.32 90.76 511.70 96.30 C 520.07 101.85 527.34 106.83 535.08 112.92 C 542.83 119.00 549.66 125.27 556.75 132.25 C 563.84 139.23 570.31 145.93 576.25 153.75 C 582.20 161.56 588.22 168.93 593.75 177.25 C 599.29 185.56 603.44 193.57 608.31 202.70 C 613.17 211.82 617.17 220.99 620.93 231.07 C 624.68 241.16 628.14 251.21 630.78 262.22 C 633.42 273.24 634.90 286.15 636.00 298.00 C 637.10 309.85 637.19 324.29 636.22 336.22 C 635.26 348.15 634.71 361.96 632.02 373.02 C 629.34 384.09 626.84 394.94 623.07 405.07 C 619.30 415.20 615.61 424.80 611.07 434.07 C 606.54 443.34 601.61 450.87 596.23 459.23 C 590.85 467.59 585.42 475.57 579.23 483.23 C 573.04 490.89 566.38 497.31 559.25 504.25 C 552.12 511.19 545.26 517.31 537.25 523.25 C 529.24 529.19 521.67 533.43 512.75 538.75 C 503.83 544.08 494.09 547.12 483.98 550.98 C 473.86 554.84 462.34 557.20 451.00 559.00 C 439.66 560.80 425.35 563.15 413.00 562.00
C 411.12 569.54 417.63 583.60 408.00 585.00 C 398.36 586.39 391.79 586.18 381.98 587.98 C 372.16 589.77 362.33 588.26 364.00 577.00 C 365.67 565.74 363.84 559.63 364.00 549.00 C 364.16 538.37 365.11 530.78 364.00 520.00 C 362.89 509.22 364.41 500.83 376.00 503.00 C 387.59 505.17 393.18 501.54 403.00 502.00 C 412.82 502.46 418.54 498.43 427.22 497.22 C 435.91 496.01 441.78 492.90 450.00 491.00
C 450.52 488.08 446.67 489.27 445.00 489.00
M 440.00 212.00 
C 451.07 214.02 447.98 233.15 436.33 230.67 C 424.67 228.18 428.20 209.84 440.00 212.00
M 374.00 221.00 
C 406.60 225.66 400.00 278.21 366.33 273.67 C 332.66 269.13 340.36 216.19 374.00 221.00
M 283.00 247.00 
C 295.88 249.53 291.55 271.79 278.32 268.66 C 265.09 265.54 268.46 244.15 283.00 247.00
M 209.00 387.00 
C 208.57 384.01 208.72 380.87 209.00 378.00
C 209.00 369.88 210.58 360.97 213.93 353.93 C 217.27 346.88 221.21 342.16 226.25 336.25 C 231.29 330.33 237.09 327.64 243.70 323.70 C 250.30 319.75 258.43 317.66 266.22 316.22 C 274.01 314.79 284.62 315.31 292.22 316.78 C 299.82 318.25 308.71 320.04 315.08 323.92 C 321.44 327.81 330.41 329.95 331.00 338.00 C 331.59 346.06 333.36 361.33 323.00 360.00 C 312.64 358.66 302.30 361.88 293.33 359.67 C 284.36 357.46 277.10 356.13 269.31 359.31 C 261.52 362.48 257.42 367.62 255.08 375.08 C 252.73 382.53 254.65 391.84 260.30 397.70 C 265.95 403.55 272.06 407.24 281.67 405.67 C 291.28 404.10 281.01 386.02 286.00 380.00 C 290.99 373.98 303.72 380.50 313.00 378.00 C 322.28 375.50 333.39 378.52 331.00 390.00 C 328.61 401.48 331.03 409.50 331.00 420.00 C 330.97 430.50 327.47 434.22 318.77 437.77 C 310.07 441.32 305.31 443.74 296.78 445.78 C 288.24 447.81 277.56 447.07 269.00 447.00 C 260.44 446.93 253.11 443.17 245.77 440.23 C 238.44 437.29 233.87 433.28 228.25 427.75 C 222.63 422.22 218.76 417.77 215.23 410.77 C 211.70 403.77 209.31 395.13 209.00 387.00 Z"/>
</g>
<g fill="#202020" fill-opacity="1.00" stroke="None">
<path d="
M 331.00 520.00 
C 331.00 517.23 331.92 512.59 331.00 510.00
C 326.85 502.31 305.90 508.59 297.00 506.00 C 288.10 503.41 273.32 503.96 264.07 500.93 C 254.83 497.89 244.90 494.68 236.07 490.93 C 227.25 487.17 219.02 482.99 211.08 477.92 C 203.14 472.85 196.40 467.84 189.25 461.75 C 182.10 455.66 176.56 449.79 170.25 442.75 C 163.93 435.71 159.17 429.03 153.92 421.08 C 148.66 413.13 144.93 405.17 140.77 396.23 C 136.62 387.29 133.18 378.18 130.93 368.07 C 128.68 357.97 125.42 347.01 125.00 336.00 C 124.58 324.99 124.84 309.69 126.01 299.01 C 127.18 288.32 130.05 277.51 132.68 267.68 C 135.30 257.85 139.09 248.90 143.08 240.08 C 147.07 231.25 152.21 224.03 157.08 216.08 C 161.94 208.12 166.92 202.11 173.00 195.00
C 176.66 190.71 180.76 186.62 185.00 183.00
C 195.09 174.38 203.87 167.08 215.25 160.25 C 226.64 153.43 237.27 148.21 249.98 142.98 C 262.69 137.74 279.02 135.61 292.78 132.78 C 306.54 129.95 331.92 137.53 331.00 119.00 C 330.08 100.47 331.00 85.23 331.00 67.00
C 331.00 63.40 332.20 57.36 331.00 54.00
C 326.88 46.36 306.54 53.72 297.67 53.67 C 288.80 53.62 273.61 57.23 264.22 59.22 C 254.84 61.21 243.42 64.95 234.22 68.22 C 225.03 71.50 215.52 75.77 206.69 79.69 C 197.87 83.62 189.46 88.50 181.25 93.25 C 173.03 97.99 165.90 103.80 158.23 109.23 C 150.56 114.66 144.06 120.76 136.75 126.75 C 129.44 132.74 124.37 140.06 117.75 146.75 C 111.13 153.45 106.60 161.27 100.77 168.77 C 94.94 176.27 90.78 184.43 85.77 192.77 C 80.76 201.11 76.61 209.42 72.77 218.77 C 68.93 228.12 65.09 236.87 61.98 246.98 C 58.86 257.08 56.76 268.04 54.99 278.99 C 53.23 289.94 52.01 302.85 51.33 314.33 C 50.65 325.81 51.98 338.85 53.00 350.00 C 54.02 361.14 56.57 372.62 59.01 382.99 C 61.44 393.36 64.65 403.22 68.22 412.78 C 71.80 422.33 76.17 430.62 80.69 439.31 C 85.22 447.99 89.53 456.11 95.23 463.77 C 100.93 471.43 105.51 479.19 111.75 486.25 C 118.00 493.31 123.88 499.70 130.75 506.25 C 137.63 512.80 143.90 518.85 151.30 524.70 C 158.70 530.54 166.33 535.42 174.25 540.75 C 182.18 546.07 190.07 550.81 198.92 555.08 C 207.78 559.34 215.69 564.03 225.32 567.68 C 234.96 571.32 243.68 575.10 254.33 577.67 C 264.97 580.25 274.22 583.14 286.00 585.00 C 297.78 586.86 308.70 587.10 322.00 588.00 C 335.30 588.90 330.76 569.43 331.00 558.00 C 331.24 546.57 331.00 531.74 331.00 520.00 Z"/>
</g>
<g fill="#202020" fill-opacity="1.00" stroke="None">
<path d="
M 563.00 311.00 
C 563.52 316.35 563.51 322.72 563.00 328.00
C 562.48 381.70 536.03 434.44 492.00 466.00
C 490.55 461.49 487.63 456.98 488.00 452.00 C 488.38 447.02 487.49 439.32 489.07 435.07 C 490.65 430.83 489.66 423.13 493.00 426.00
C 491.86 416.52 494.46 410.67 494.00 401.00 C 493.54 391.33 492.96 384.18 499.00 377.00
C 500.94 379.60 499.69 384.12 502.00 387.00
C 503.30 383.41 504.83 378.98 506.00 375.00
C 507.93 376.24 506.53 379.92 509.00 381.00
C 508.40 376.97 511.60 374.00 511.00 370.00
C 514.04 375.87 516.59 372.04 517.00 366.00
C 519.71 367.69 519.91 371.76 522.08 366.08 C 524.24 360.39 524.76 365.44 526.00 368.00
C 529.50 360.21 530.60 354.85 539.92 351.92 C 549.24 349.00 549.07 345.46 554.08 336.08 C 559.09 326.71 548.49 325.12 539.67 324.33 C 530.85 323.53 527.82 317.17 519.67 314.33 C 511.53 311.48 500.92 316.69 493.75 310.25 C 486.58 303.81 476.94 309.68 482.00 320.00
C 472.31 324.65 463.51 323.21 453.00 322.00 C 442.49 320.79 437.50 326.89 429.07 332.07 C 420.64 337.25 410.09 332.00 401.00 330.00 C 391.92 327.99 379.99 327.03 370.00 329.00 C 360.02 330.98 364.54 346.97 364.00 357.00 C 363.46 367.03 364.03 380.53 364.00 391.00 C 363.97 401.47 363.55 414.66 364.00 425.00 C 364.45 435.34 362.76 449.45 364.00 459.00 C 365.24 468.55 358.97 485.78 369.00 488.00 C 379.03 490.22 392.64 486.33 403.00 488.00
C 402.24 483.31 397.34 476.83 392.00 477.00 C 386.66 477.17 375.93 477.85 376.00 471.00 C 376.07 464.15 374.28 453.66 380.00 461.00
C 379.08 457.96 377.73 447.36 382.00 454.00
C 381.69 446.76 381.90 439.60 384.00 433.00
C 387.04 438.76 388.86 434.46 390.00 429.00
C 391.46 433.97 395.59 431.21 396.00 427.00
C 397.49 432.27 401.24 428.46 404.00 426.00
C 403.93 430.72 399.74 434.18 400.00 439.00
C 409.41 431.59 395.60 459.50 404.00 451.00
C 404.52 454.26 400.94 465.73 406.00 459.00
C 404.46 465.71 409.56 471.43 412.25 477.75 C 414.93 484.08 421.85 487.58 428.00 488.00
C 433.78 488.39 439.90 487.85 445.00 489.00
C 446.67 489.27 450.52 488.08 450.00 491.00
C 441.78 492.90 435.91 496.01 427.22 497.22 C 418.54 498.43 412.82 502.46 403.00 502.00 C 393.18 501.54 387.59 505.17 376.00 503.00 C 364.41 500.83 362.89 509.22 364.00 520.00 C 365.11 530.78 364.16 538.37 364.00 549.00 C 363.84 559.63 365.67 565.74 364.00 577.00 C 362.33 588.26 372.16 589.77 381.98 587.98 C 391.79 586.18 398.36 586.39 408.00 585.00 C 417.63 583.60 411.12 569.54 413.00 562.00
C 425.35 563.15 439.66 560.80 451.00 559.00 C 462.34 557.20 473.86 554.84 483.98 550.98 C 494.09 547.12 503.83 544.08 512.75 538.75 C 521.67 533.43 529.24 529.19 537.25 523.25 C 545.26 517.31 552.12 511.19 559.25 504.25 C 566.38 497.31 573.04 490.89 579.23 483.23 C 585.42 475.57 590.85 467.59 596.23 459.23 C 601.61 450.87 606.54 443.34 611.07 434.07 C 615.61 424.80 619.30 415.20 623.07 405.07 C 626.84 394.94 629.34 384.09 632.02 373.02 C 634.71 361.96 635.26 348.15 636.22 336.22 C 637.19 324.29 637.10 309.85 636.00 298.00 C 634.90 286.15 633.42 273.24 630.78 262.22 C 628.14 251.21 624.68 241.16 620.93 231.07 C 617.17 220.99 613.17 211.82 608.31 202.70 C 603.44 193.57 599.29 185.56 593.75 177.25 C 588.22 168.93 582.20 161.56 576.25 153.75 C 570.31 145.93 563.84 139.23 556.75 132.25 C 549.66 125.27 542.83 119.00 535.08 112.92 C 527.34 106.83 520.07 101.85 511.70 96.30 C 503.32 90.76 494.42 86.56 485.23 81.77 C 476.04 76.98 466.59 73.34 456.69 69.31 C 446.80 65.28 435.91 62.60 425.22 59.78 C 414.53 56.96 403.10 54.71 391.67 53.33 C 380.24 51.95 362.86 46.67 364.00 62.00 C 365.14 77.33 364.23 88.93 364.00 103.00 C 363.77 117.07 361.50 132.96 377.00 131.00 C 392.50 129.04 399.80 134.27 412.33 135.67 C 424.85 137.07 433.19 141.57 443.78 145.22 C 454.36 148.88 462.17 153.63 471.25 158.75 C 480.34 163.86 487.55 169.28 495.25 175.75 C 502.95 182.22 508.92 187.77 515.75 195.25 C 522.57 202.74 527.29 210.49 533.08 218.92 C 538.87 227.35 542.93 236.10 547.23 245.77 C 551.52 255.44 555.24 265.31 558.02 275.98 C 560.80 286.64 563.00 299.34 563.00 311.00
M 454.00 420.00 
C 452.19 425.70 453.96 432.33 452.00 438.00
C 457.39 433.56 453.14 444.57 453.00 448.00
C 457.63 444.80 458.06 445.89 457.22 450.22 C 456.38 454.55 461.58 456.32 459.00 461.00
C 462.06 461.35 461.19 456.53 464.00 456.00
C 464.00 459.33 464.00 462.67 464.00 466.00
C 469.49 464.71 470.04 475.46 474.00 479.00
C 466.35 484.20 459.66 488.33 453.25 479.75 C 446.84 471.17 430.13 484.24 431.02 466.98 C 431.92 449.71 442.26 431.67 454.00 420.00 Z"/>
</g>
<g fill="#979596" fill-opacity="1.00" stroke="None">
<path d="
M 331.00 67.00 
C 331.37 63.20 333.13 57.95 331.00 54.00
C 332.20 57.36 331.00 63.40 331.00 67.00 Z"/>
</g>
<g fill="#787877" fill-opacity="1.00" stroke="None">
<path d="
M 173.00 195.00 
C 176.87 191.13 181.08 186.92 185.00 183.00
C 180.76 186.62 176.66 190.71 173.00 195.00 Z"/>
</g>
<g fill="#262625" fill-opacity="1.00" stroke="None">
<path d="
M 440.00 212.00 
C 428.20 209.84 424.67 228.18 436.33 230.67 C 447.98 233.15 451.07 214.02 440.00 212.00 Z"/>
</g>
<g fill="#212020" fill-opacity="1.00" stroke="None">
<path d="
M 374.00 221.00 
C 340.36 216.19 332.66 269.13 366.33 273.67 C 400.00 278.21 406.60 225.66 374.00 221.00 Z"/>
</g>
<g fill="#252523" fill-opacity="1.00" stroke="None">
<path d="
M 283.00 247.00 
C 268.46 244.15 265.09 265.54 278.32 268.66 C 291.55 271.79 295.88 249.53 283.00 247.00 Z"/>
</g>
<g fill="#8E8B89" fill-opacity="1.00" stroke="None">
<path d="
M 563.00 328.00 
C 563.51 322.72 563.52 316.35 563.00 311.00
C 563.00 316.67 563.00 322.33 563.00 328.00 Z"/>
</g>
<g fill="#202020" fill-opacity="1.00" stroke="None">
<path d="
M 209.00 378.00 
C 209.00 380.99 208.89 384.01 209.00 387.00
C 209.31 395.13 211.70 403.77 215.23 410.77 C 218.76 417.77 222.63 422.22 228.25 427.75 C 233.87 433.28 238.44 437.29 245.77 440.23 C 253.11 443.17 260.44 446.93 269.00 447.00 C 277.56 447.07 288.24 447.81 296.78 445.78 C 305.31 443.74 310.07 441.32 318.77 437.77 C 327.47 434.22 330.97 430.50 331.00 420.00 C 331.03 409.50 328.61 401.48 331.00 390.00 C 333.39 378.52 322.28 375.50 313.00 378.00 C 303.72 380.50 290.99 373.98 286.00 380.00 C 281.01 386.02 291.28 404.10 281.67 405.67 C 272.06 407.24 265.95 403.55 260.30 397.70 C 254.65 391.84 252.73 382.53 255.08 375.08 C 257.42 367.62 261.52 362.48 269.31 359.31 C 277.10 356.13 284.36 357.46 293.33 359.67 C 302.30 361.88 312.64 358.66 323.00 360.00 C 333.36 361.33 331.59 346.06 331.00 338.00 C 330.41 329.95 321.44 327.81 315.08 323.92 C 308.71 320.04 299.82 318.25 292.22 316.78 C 284.62 315.31 274.01 314.79 266.22 316.22 C 258.43 317.66 250.30 319.75 243.70 323.70 C 237.09 327.64 231.29 330.33 226.25 336.25 C 221.21 342.16 217.27 346.88 213.93 353.93 C 210.58 360.97 209.00 369.88 209.00 378.00 Z"/>
</g>
<g fill="#8D8C88" fill-opacity="1.00" stroke="None">
<path d="
M 209.00 387.00 
C 208.89 384.01 209.00 380.99 209.00 378.00
C 208.72 380.87 208.57 384.01 209.00 387.00 Z"/>
</g>
<g fill="#EEECE8" fill-opacity="1.00" stroke="None">
<path d="
M 454.00 420.00 
C 442.26 431.67 431.92 449.71 431.02 466.98 C 430.13 484.24 446.84 471.17 453.25 479.75 C 459.66 488.33 466.35 484.20 474.00 479.00
C 470.04 475.46 469.49 464.71 464.00 466.00
C 464.00 462.67 464.00 459.33 464.00 456.00
C 461.19 456.53 462.06 461.35 459.00 461.00
C 461.58 456.32 456.38 454.55 457.22 450.22 C 458.06 445.89 457.63 444.80 453.00 448.00
C 453.14 444.57 457.39 433.56 452.00 438.00
C 453.96 432.33 452.19 425.70 454.00 420.00 Z"/>
</g>
<g fill="#767774" fill-opacity="1.00" stroke="None">
<path d="
M 445.00 489.00 
C 439.90 487.85 433.78 488.39 428.00 488.00
C 433.06 488.91 439.31 488.43 445.00 489.00 Z"/>
</g>
<g fill="#868585" fill-opacity="1.00" stroke="None">
<path d="
M 331.00 520.00 
C 331.30 516.86 332.82 513.38 331.00 510.00
C 331.92 512.59 331.00 517.23 331.00 520.00 Z"/>
</g>
</svg>